# xmcd
# Copyright (C) 1995-1998 Ti Kan
#
# Track frame offsets:
#       150
#       19650
#       40978
#       59353
#
# Disc length: 976 seconds
#
# Revision: 0
# Processed by: cddbd v1.5.2PL0 Copyright (c) Steve Scherf et al.
# Submitted via: CD-Import v1.0
#
DISCID=2c03ce04
DTITLE=Century Of Lies - Call Me Back
DYEAR=10
DGENRE=
TTITLE0=Century Of Lies
TTITLE1=The Sun Never Goes Down
TTITLE2=You
TTITLE3=I Wish I Was Young
EXTD=
EXTT0=
EXTT1=
EXTT2=
EXTT3=
PLAYORDER=
